<?xml version="1.0" encoding="UTF-8"?>
<svg id="svg" width="400" height="400" version="1.1" viewBox="0 0 400 400" xmlns="http://www.w3.org/2000/svg">
 <g>
  <rect x="54.531" y="53.638" width="291.23" height="290.03" fill="#425973"/>
 </g>
 <g>
  <path d="m200.6 7.9453c-157.62-0.28435-193.04 72.082-192.06 193.86 1.0616 131.83 48.306 189.91 191.01 189.81 113.31-0.08094 192.59-30.522 191.76-192.36-0.58443-113.67-27.914-191.01-190.71-191.31zm-0.44922 50.486a141.42 141.42 0 0 1 141.42 141.42 141.42 141.42 0 0 1-141.42 141.42 141.42 141.42 0 0 1-141.42-141.42 141.42 141.42 0 0 1 141.42-141.42z" fill="#fff"/>
 </g>
 <g>
  <g>
   <path d="m169.28 268.11s3.3365 0.0677 5.175-1.8205l22.172-22.771-24.794-17.228-6.8913 18.651z" fill="#9eb2c5"/>
  </g>
  <g>
   <path d="m150.42 220.55 15.784 45.657c0.68144 1.9711 3.072 1.9068 3.072 1.9068l3.3898-39.725 90.36-70.551-20.869-5.1907z" fill="#cddae2"/>
  </g>
  <g>
   <path d="m150.42 220.55 86.017-56.78c6.1347-4.0495 7.7615-2.8134 2.7542 1.9068l-66.525 62.712 60.011 45.657c6.1346 4.6673 14.586 2.326 16.208-5.0318l28.231-128.12c1.1909-5.4049-5.4071-8.106-11.653-5.7203l-155.3 59.322c-6.6254 2.5309-7.0299 9.7812 1.483 12.712z" fill="#fff"/>
  </g>
 </g>
</svg>
